<mxfile host="app.diagrams.net" modified="2024-06-19T20:11:09.721Z" agent="Mozilla/5.0 (Windows NT 10.0; Win64; x64) AppleWebKit/537.36 (KHTML, like Gecko) Chrome/125.0.0.0 Safari/537.36" etag="KucBWT2f8fl70VNhwJs2" version="24.5.5" type="device" pages="2">
  <diagram name="Page-1" id="bLqNmkRba2NGORORPSZ6">
    <mxGraphModel dx="83" dy="2527" grid="1" gridSize="10" guides="1" tooltips="1" connect="1" arrows="1" fold="1" page="1" pageScale="1" pageWidth="2000" pageHeight="700" math="0" shadow="0">
      <root>
        <mxCell id="0" />
        <mxCell id="1" parent="0" />
        <mxCell id="kpbunleFt5hodRkQ_GG0-1" value="" style="rounded=0;whiteSpace=wrap;html=1;fillColor=default;fillStyle=auto;" parent="1" vertex="1">
          <mxGeometry x="2030" y="-970" width="1580" height="940" as="geometry" />
        </mxCell>
        <mxCell id="kpbunleFt5hodRkQ_GG0-2" value="" style="group" parent="1" vertex="1" connectable="0">
          <mxGeometry x="2050" y="-952.5" width="210" height="900" as="geometry" />
        </mxCell>
        <mxCell id="kpbunleFt5hodRkQ_GG0-3" value="" style="rounded=1;whiteSpace=wrap;html=1;fillColor=#BFBFBF;fontColor=#333333;strokeColor=#666666;movable=1;resizable=1;rotatable=1;deletable=1;editable=1;locked=0;connectable=1;" parent="kpbunleFt5hodRkQ_GG0-2" vertex="1">
          <mxGeometry width="210" height="900" as="geometry" />
        </mxCell>
        <mxCell id="kpbunleFt5hodRkQ_GG0-4" value="&lt;font style=&quot;font-size: 32px;&quot;&gt;Learny&lt;/font&gt;" style="rounded=1;whiteSpace=wrap;html=1;fillColor=#0A0A0A;fontColor=#FCFCFC;fontSize=16;movable=1;resizable=1;rotatable=1;deletable=1;editable=1;locked=0;connectable=1;" parent="kpbunleFt5hodRkQ_GG0-2" vertex="1">
          <mxGeometry x="10" y="50" width="190" height="60" as="geometry" />
        </mxCell>
        <mxCell id="kpbunleFt5hodRkQ_GG0-5" value="Main Page" style="rounded=1;whiteSpace=wrap;html=1;fontSize=16;" parent="kpbunleFt5hodRkQ_GG0-2" vertex="1">
          <mxGeometry x="10" y="200" width="190" height="40" as="geometry" />
        </mxCell>
        <mxCell id="kpbunleFt5hodRkQ_GG0-6" value="Schedule" style="rounded=1;whiteSpace=wrap;html=1;fontSize=16;" parent="kpbunleFt5hodRkQ_GG0-2" vertex="1">
          <mxGeometry x="10" y="260" width="190" height="40" as="geometry" />
        </mxCell>
        <mxCell id="kpbunleFt5hodRkQ_GG0-7" value="Courses" style="rounded=1;whiteSpace=wrap;html=1;fontSize=16;" parent="kpbunleFt5hodRkQ_GG0-2" vertex="1">
          <mxGeometry x="10" y="320" width="190" height="40" as="geometry" />
        </mxCell>
        <mxCell id="kpbunleFt5hodRkQ_GG0-8" value="Sprawdziany" style="rounded=1;whiteSpace=wrap;html=1;fontSize=16;fillColor=#d5e8d4;strokeColor=#82b366;" parent="kpbunleFt5hodRkQ_GG0-2" vertex="1">
          <mxGeometry x="10" y="380" width="190" height="40" as="geometry" />
        </mxCell>
        <mxCell id="kpbunleFt5hodRkQ_GG0-9" value="Oceny końcowe" style="rounded=1;whiteSpace=wrap;html=1;fontSize=16;" parent="kpbunleFt5hodRkQ_GG0-2" vertex="1">
          <mxGeometry x="10" y="440" width="190" height="40" as="geometry" />
        </mxCell>
        <mxCell id="kpbunleFt5hodRkQ_GG0-11" value="Decyzje" style="rounded=1;whiteSpace=wrap;html=1;fontSize=16;" parent="kpbunleFt5hodRkQ_GG0-2" vertex="1">
          <mxGeometry x="10" y="560" width="190" height="40" as="geometry" />
        </mxCell>
        <mxCell id="kpbunleFt5hodRkQ_GG0-12" value="Profil" style="rounded=1;whiteSpace=wrap;html=1;fontSize=16;" parent="kpbunleFt5hodRkQ_GG0-2" vertex="1">
          <mxGeometry x="10" y="130" width="190" height="40" as="geometry" />
        </mxCell>
        <mxCell id="kpbunleFt5hodRkQ_GG0-13" value="" style="line;strokeWidth=2;html=1;" parent="kpbunleFt5hodRkQ_GG0-2" vertex="1">
          <mxGeometry x="10" y="180" width="190" height="10" as="geometry" />
        </mxCell>
        <mxCell id="kpbunleFt5hodRkQ_GG0-14" value="" style="line;strokeWidth=2;html=1;" parent="kpbunleFt5hodRkQ_GG0-2" vertex="1">
          <mxGeometry x="10" y="610" width="190" height="10" as="geometry" />
        </mxCell>
        <mxCell id="kpbunleFt5hodRkQ_GG0-15" value="Aplikacja mobilna" style="rounded=1;whiteSpace=wrap;html=1;fontSize=16;" parent="kpbunleFt5hodRkQ_GG0-2" vertex="1">
          <mxGeometry x="10" y="630" width="190" height="40" as="geometry" />
        </mxCell>
        <mxCell id="kpbunleFt5hodRkQ_GG0-16" value="Preferencje" style="rounded=1;whiteSpace=wrap;html=1;fontSize=16;" parent="kpbunleFt5hodRkQ_GG0-2" vertex="1">
          <mxGeometry x="10" y="812.5" width="190" height="40" as="geometry" />
        </mxCell>
        <mxCell id="kpbunleFt5hodRkQ_GG0-17" value="Język" style="rounded=1;whiteSpace=wrap;html=1;fontSize=16;" parent="kpbunleFt5hodRkQ_GG0-2" vertex="1">
          <mxGeometry x="10" y="690" width="190" height="40" as="geometry" />
        </mxCell>
        <mxCell id="kpbunleFt5hodRkQ_GG0-18" value="Platności" style="rounded=1;whiteSpace=wrap;html=1;fontSize=16;" parent="kpbunleFt5hodRkQ_GG0-2" vertex="1">
          <mxGeometry x="10" y="752.5" width="190" height="40" as="geometry" />
        </mxCell>
        <mxCell id="kpbunleFt5hodRkQ_GG0-19" value="&lt;h1 style=&quot;margin-top: 0px;&quot;&gt;Sprawdziany&lt;/h1&gt;&lt;div&gt;&lt;br&gt;&lt;/div&gt;&lt;div&gt;На этой странице будут отображаться оценки за все колосы, карткувки, справджяны и тому подобного&lt;/div&gt;" style="text;html=1;whiteSpace=wrap;overflow=hidden;rounded=0;" parent="1" vertex="1">
          <mxGeometry x="2060" y="-1190" width="510" height="110" as="geometry" />
        </mxCell>
        <mxCell id="kpbunleFt5hodRkQ_GG0-20" value="" style="rounded=1;whiteSpace=wrap;html=1;fillColor=#d5e8d4;strokeColor=#82b366;" parent="1" vertex="1">
          <mxGeometry x="2615" y="-1165" width="120" height="60" as="geometry" />
        </mxCell>
        <mxCell id="kpbunleFt5hodRkQ_GG0-21" style="edgeStyle=orthogonalEdgeStyle;rounded=0;orthogonalLoop=1;jettySize=auto;html=1;exitX=0;exitY=0.5;exitDx=0;exitDy=0;entryX=1;entryY=0.5;entryDx=0;entryDy=0;" parent="1" source="kpbunleFt5hodRkQ_GG0-22" target="kpbunleFt5hodRkQ_GG0-20" edge="1">
          <mxGeometry relative="1" as="geometry" />
        </mxCell>
        <mxCell id="kpbunleFt5hodRkQ_GG0-22" value="&amp;nbsp;какая сейчас часть страницы дизайнится" style="text;html=1;align=center;verticalAlign=middle;whiteSpace=wrap;rounded=0;fontSize=17;" parent="1" vertex="1">
          <mxGeometry x="2785" y="-1152.5" width="240" height="35" as="geometry" />
        </mxCell>
        <mxCell id="kpbunleFt5hodRkQ_GG0-25" value="" style="rounded=0;whiteSpace=wrap;html=1;" parent="1" vertex="1">
          <mxGeometry x="2295" y="-950" width="1280" height="900" as="geometry" />
        </mxCell>
        <mxCell id="1W3SnPmFIVeSbYBCv_X_-1" value="" style="rounded=1;whiteSpace=wrap;html=1;" parent="1" vertex="1">
          <mxGeometry x="2330" y="-885" width="260" height="770" as="geometry" />
        </mxCell>
        <mxCell id="1W3SnPmFIVeSbYBCv_X_-10" value="" style="group" parent="1" vertex="1" connectable="0">
          <mxGeometry x="2370" y="-776" width="180" height="50" as="geometry" />
        </mxCell>
        <mxCell id="1W3SnPmFIVeSbYBCv_X_-7" value="" style="rounded=1;whiteSpace=wrap;html=1;" parent="1W3SnPmFIVeSbYBCv_X_-10" vertex="1">
          <mxGeometry x="-10" width="190" height="50" as="geometry" />
        </mxCell>
        <mxCell id="1W3SnPmFIVeSbYBCv_X_-8" value="&lt;font style=&quot;font-size: 16px;&quot;&gt;Analiza matematyczna&lt;/font&gt;" style="text;html=1;align=center;verticalAlign=middle;whiteSpace=wrap;rounded=0;" parent="1W3SnPmFIVeSbYBCv_X_-10" vertex="1">
          <mxGeometry y="10" width="160" height="30" as="geometry" />
        </mxCell>
        <mxCell id="1W3SnPmFIVeSbYBCv_X_-11" value="" style="group" parent="1" vertex="1" connectable="0">
          <mxGeometry x="2370" y="-700" width="170" height="50" as="geometry" />
        </mxCell>
        <mxCell id="1W3SnPmFIVeSbYBCv_X_-12" value="" style="rounded=1;whiteSpace=wrap;html=1;" parent="1W3SnPmFIVeSbYBCv_X_-11" vertex="1">
          <mxGeometry width="170" height="50" as="geometry" />
        </mxCell>
        <mxCell id="1W3SnPmFIVeSbYBCv_X_-13" value="&lt;font style=&quot;font-size: 16px;&quot;&gt;Nazwa przedmiotu&lt;/font&gt;" style="text;html=1;align=center;verticalAlign=middle;whiteSpace=wrap;rounded=0;" parent="1W3SnPmFIVeSbYBCv_X_-11" vertex="1">
          <mxGeometry x="15" y="10" width="140" height="30" as="geometry" />
        </mxCell>
        <mxCell id="1W3SnPmFIVeSbYBCv_X_-14" value="" style="rounded=0;whiteSpace=wrap;html=1;" parent="1" vertex="1">
          <mxGeometry x="2680" y="-847.5" width="751.25" height="45" as="geometry" />
        </mxCell>
        <mxCell id="1W3SnPmFIVeSbYBCv_X_-16" value="" style="editableCssRules=.*;html=1;shape=image;verticalLabelPosition=bottom;labelBackgroundColor=#ffffff;verticalAlign=top;aspect=fixed;imageAspect=0;image=data:image/svg+xml,PHN2ZyB4bWxucz0iaHR0cDovL3d3dy53My5vcmcvMjAwMC9zdmciIHhtbG5zOnY9Imh0dHBzOi8vdmVjdGEuaW8vbmFubyIgd2lkdGg9IjM3NS41MDQwMTg5MTYxMTE2IiBoZWlnaHQ9IjM3Ni40MTEwMTA4NDIxNTg5MyIgdmlld0JveD0iMCAwIDk5LjM1MjAwNTAwNDg4MjgxIDk5LjU5MjAwMjg2ODY1MjM0Ij4mI3hhOzxzdHlsZSB0eXBlPSJ0ZXh0L2NzcyI+JiN4YTsJLnN0MHtmaWxsOiM2NjlkZjY7fSYjeGE7CS5zdDF7ZmlsbDojYWVjYmZhO30mI3hhOzwvc3R5bGU+JiN4YTsJPHBhdGggY2xhc3M9InN0MCIgZD0iTTcwLjc2MyA0OS43ODZhMzAuOTkgMzAuOTkgMCAwIDAtNC40OTkuNDQydjI3LjA3OGgxMXYtMjYuOTdsLTIuNjg2LS4zOTFjLTEuMjc5LS4xMzEtMi41NC0uMTg2LTMuODE1LS4xNTl6bS0xNS41ODcgMy43NjZsLTQuNDcxIDEuODcxLS4wMTYuMDA2LS4wMTYuMDA4LTYuNDk4IDIuNTIydjMwLjg4NGgxMXptMzMuMTc2LjEwNHY0NS45MzZoMTFWNTguMTk4Yy00LjEzOC0xLjc5OC03Ljc4My0zLjMyNS0xMS00LjU0MXpNMCA1My43Njh2MjMuNTM5aDExVjU4LjAxMmMtMy40MzYtMS4xMjYtNy4wNTItMi41NTItMTEtNC4yNDR6bTMzLjA4OCA2Ljg2Yy0zLjcwNS40NzItNy4zMjUuNDc4LTExIC4wMDd2MzguOTU3aDExeiIvPiYjeGE7CTxwYXRoIGNsYXNzPSJzdDEiIGQ9Ik0wIDB2NDEuNzM0YzQuMTA1IDEuODE5IDcuNzQgMy4zNSAxMSA0LjU3MlYwem02Ni4yNjQgMHYzOS4xNTRjMy4xNzgtLjQxMiA2LjI4Mi0uNDczIDkuNDM0LS4xNS41MjMuMDUzIDEuMDQ0LjExOSAxLjU2Ni4xOTFWMHpNNDQuMTc2IDExLjUzOHYzNC42OTRsMi4xMzctLjg5NWMzLjE0LTEuMzc5IDYuMDY5LTIuNTM5IDguODYzLTMuNDl2LTMwLjMxek0yMi4wODggMjIuMjg1djI3LjIzYy4wMTEuMDAyLjAyMi4wMDQuMDMzLjAwNiAzLjc3NC42NCA3LjIxNS43MDcgMTAuOTY3LjA4VjIyLjI4NXptNjYuMjY0IDB2MTkuNjQxYzMuMzg4IDEuMTQ0IDcuMDE1IDIuNTk3IDExIDQuMjlWMjIuMjg1eiIvPiYjeGE7PC9zdmc+;" parent="1" vertex="1">
          <mxGeometry x="2690" y="-837.5" width="25" height="25" as="geometry" />
        </mxCell>
        <mxCell id="1W3SnPmFIVeSbYBCv_X_-17" value="Kolokwium 1" style="text;html=1;align=center;verticalAlign=middle;whiteSpace=wrap;rounded=0;fontSize=19;" parent="1" vertex="1">
          <mxGeometry x="2762.5" y="-840.25" width="145" height="30" as="geometry" />
        </mxCell>
        <mxCell id="1W3SnPmFIVeSbYBCv_X_-18" value="" style="line;strokeWidth=2;direction=south;html=1;" parent="1" vertex="1">
          <mxGeometry x="2730" y="-848.5" width="10" height="47.5" as="geometry" />
        </mxCell>
        <mxCell id="1W3SnPmFIVeSbYBCv_X_-20" value="" style="line;strokeWidth=2;direction=south;html=1;" parent="1" vertex="1">
          <mxGeometry x="2930" y="-848.75" width="10" height="47.5" as="geometry" />
        </mxCell>
        <mxCell id="1W3SnPmFIVeSbYBCv_X_-21" value="10.5 pkt" style="text;html=1;align=center;verticalAlign=middle;whiteSpace=wrap;rounded=0;fontSize=17;" parent="1" vertex="1">
          <mxGeometry x="2955" y="-840.25" width="120" height="30" as="geometry" />
        </mxCell>
        <mxCell id="1W3SnPmFIVeSbYBCv_X_-22" value="" style="line;strokeWidth=2;direction=south;html=1;" parent="1" vertex="1">
          <mxGeometry x="3090" y="-849" width="10" height="47.5" as="geometry" />
        </mxCell>
        <mxCell id="1W3SnPmFIVeSbYBCv_X_-23" value="Wystawiący: Vadym Melnychenko" style="text;html=1;align=center;verticalAlign=middle;whiteSpace=wrap;rounded=0;fontSize=17;" parent="1" vertex="1">
          <mxGeometry x="3110" y="-839.75" width="310" height="30" as="geometry" />
        </mxCell>
        <mxCell id="1W3SnPmFIVeSbYBCv_X_-33" value="" style="rounded=0;whiteSpace=wrap;html=1;" parent="1" vertex="1">
          <mxGeometry x="2680" y="-768.5" width="751.25" height="45" as="geometry" />
        </mxCell>
        <mxCell id="1W3SnPmFIVeSbYBCv_X_-34" value="" style="editableCssRules=.*;html=1;shape=image;verticalLabelPosition=bottom;labelBackgroundColor=#ffffff;verticalAlign=top;aspect=fixed;imageAspect=0;image=data:image/svg+xml,PHN2ZyB4bWxucz0iaHR0cDovL3d3dy53My5vcmcvMjAwMC9zdmciIHhtbG5zOnY9Imh0dHBzOi8vdmVjdGEuaW8vbmFubyIgd2lkdGg9IjM3NS41MDQwMTg5MTYxMTE2IiBoZWlnaHQ9IjM3Ni40MTEwMTA4NDIxNTg5MyIgdmlld0JveD0iMCAwIDk5LjM1MjAwNTAwNDg4MjgxIDk5LjU5MjAwMjg2ODY1MjM0Ij4mI3hhOzxzdHlsZSB0eXBlPSJ0ZXh0L2NzcyI+JiN4YTsJLnN0MHtmaWxsOiM2NjlkZjY7fSYjeGE7CS5zdDF7ZmlsbDojYWVjYmZhO30mI3hhOzwvc3R5bGU+JiN4YTsJPHBhdGggY2xhc3M9InN0MCIgZD0iTTcwLjc2MyA0OS43ODZhMzAuOTkgMzAuOTkgMCAwIDAtNC40OTkuNDQydjI3LjA3OGgxMXYtMjYuOTdsLTIuNjg2LS4zOTFjLTEuMjc5LS4xMzEtMi41NC0uMTg2LTMuODE1LS4xNTl6bS0xNS41ODcgMy43NjZsLTQuNDcxIDEuODcxLS4wMTYuMDA2LS4wMTYuMDA4LTYuNDk4IDIuNTIydjMwLjg4NGgxMXptMzMuMTc2LjEwNHY0NS45MzZoMTFWNTguMTk4Yy00LjEzOC0xLjc5OC03Ljc4My0zLjMyNS0xMS00LjU0MXpNMCA1My43Njh2MjMuNTM5aDExVjU4LjAxMmMtMy40MzYtMS4xMjYtNy4wNTItMi41NTItMTEtNC4yNDR6bTMzLjA4OCA2Ljg2Yy0zLjcwNS40NzItNy4zMjUuNDc4LTExIC4wMDd2MzguOTU3aDExeiIvPiYjeGE7CTxwYXRoIGNsYXNzPSJzdDEiIGQ9Ik0wIDB2NDEuNzM0YzQuMTA1IDEuODE5IDcuNzQgMy4zNSAxMSA0LjU3MlYwem02Ni4yNjQgMHYzOS4xNTRjMy4xNzgtLjQxMiA2LjI4Mi0uNDczIDkuNDM0LS4xNS41MjMuMDUzIDEuMDQ0LjExOSAxLjU2Ni4xOTFWMHpNNDQuMTc2IDExLjUzOHYzNC42OTRsMi4xMzctLjg5NWMzLjE0LTEuMzc5IDYuMDY5LTIuNTM5IDguODYzLTMuNDl2LTMwLjMxek0yMi4wODggMjIuMjg1djI3LjIzYy4wMTEuMDAyLjAyMi4wMDQuMDMzLjAwNiAzLjc3NC42NCA3LjIxNS43MDcgMTAuOTY3LjA4VjIyLjI4NXptNjYuMjY0IDB2MTkuNjQxYzMuMzg4IDEuMTQ0IDcuMDE1IDIuNTk3IDExIDQuMjlWMjIuMjg1eiIvPiYjeGE7PC9zdmc+;" parent="1" vertex="1">
          <mxGeometry x="2690" y="-758.5" width="25" height="25" as="geometry" />
        </mxCell>
        <mxCell id="1W3SnPmFIVeSbYBCv_X_-35" value="Kolokwium 1" style="text;html=1;align=center;verticalAlign=middle;whiteSpace=wrap;rounded=0;fontSize=19;" parent="1" vertex="1">
          <mxGeometry x="2762.5" y="-761.25" width="145" height="30" as="geometry" />
        </mxCell>
        <mxCell id="1W3SnPmFIVeSbYBCv_X_-36" value="" style="line;strokeWidth=2;direction=south;html=1;" parent="1" vertex="1">
          <mxGeometry x="2730" y="-769.5" width="10" height="47.5" as="geometry" />
        </mxCell>
        <mxCell id="1W3SnPmFIVeSbYBCv_X_-37" value="" style="line;strokeWidth=2;direction=south;html=1;" parent="1" vertex="1">
          <mxGeometry x="2930" y="-769.75" width="10" height="47.5" as="geometry" />
        </mxCell>
        <mxCell id="1W3SnPmFIVeSbYBCv_X_-38" value="10.5 pkt" style="text;html=1;align=center;verticalAlign=middle;whiteSpace=wrap;rounded=0;fontSize=17;" parent="1" vertex="1">
          <mxGeometry x="2955" y="-761.25" width="120" height="30" as="geometry" />
        </mxCell>
        <mxCell id="1W3SnPmFIVeSbYBCv_X_-39" value="" style="line;strokeWidth=2;direction=south;html=1;" parent="1" vertex="1">
          <mxGeometry x="3090" y="-770" width="10" height="47.5" as="geometry" />
        </mxCell>
        <mxCell id="1W3SnPmFIVeSbYBCv_X_-40" value="Wystawiący: Vadym Melnychenko" style="text;html=1;align=center;verticalAlign=middle;whiteSpace=wrap;rounded=0;fontSize=17;" parent="1" vertex="1">
          <mxGeometry x="3110" y="-760.75" width="310" height="30" as="geometry" />
        </mxCell>
        <mxCell id="1W3SnPmFIVeSbYBCv_X_-41" value="" style="rounded=0;whiteSpace=wrap;html=1;" parent="1" vertex="1">
          <mxGeometry x="2680" y="-688.5" width="751.25" height="45" as="geometry" />
        </mxCell>
        <mxCell id="1W3SnPmFIVeSbYBCv_X_-42" value="" style="editableCssRules=.*;html=1;shape=image;verticalLabelPosition=bottom;labelBackgroundColor=#ffffff;verticalAlign=top;aspect=fixed;imageAspect=0;image=data:image/svg+xml,PHN2ZyB4bWxucz0iaHR0cDovL3d3dy53My5vcmcvMjAwMC9zdmciIHhtbG5zOnY9Imh0dHBzOi8vdmVjdGEuaW8vbmFubyIgd2lkdGg9IjM3NS41MDQwMTg5MTYxMTE2IiBoZWlnaHQ9IjM3Ni40MTEwMTA4NDIxNTg5MyIgdmlld0JveD0iMCAwIDk5LjM1MjAwNTAwNDg4MjgxIDk5LjU5MjAwMjg2ODY1MjM0Ij4mI3hhOzxzdHlsZSB0eXBlPSJ0ZXh0L2NzcyI+JiN4YTsJLnN0MHtmaWxsOiM2NjlkZjY7fSYjeGE7CS5zdDF7ZmlsbDojYWVjYmZhO30mI3hhOzwvc3R5bGU+JiN4YTsJPHBhdGggY2xhc3M9InN0MCIgZD0iTTcwLjc2MyA0OS43ODZhMzAuOTkgMzAuOTkgMCAwIDAtNC40OTkuNDQydjI3LjA3OGgxMXYtMjYuOTdsLTIuNjg2LS4zOTFjLTEuMjc5LS4xMzEtMi41NC0uMTg2LTMuODE1LS4xNTl6bS0xNS41ODcgMy43NjZsLTQuNDcxIDEuODcxLS4wMTYuMDA2LS4wMTYuMDA4LTYuNDk4IDIuNTIydjMwLjg4NGgxMXptMzMuMTc2LjEwNHY0NS45MzZoMTFWNTguMTk4Yy00LjEzOC0xLjc5OC03Ljc4My0zLjMyNS0xMS00LjU0MXpNMCA1My43Njh2MjMuNTM5aDExVjU4LjAxMmMtMy40MzYtMS4xMjYtNy4wNTItMi41NTItMTEtNC4yNDR6bTMzLjA4OCA2Ljg2Yy0zLjcwNS40NzItNy4zMjUuNDc4LTExIC4wMDd2MzguOTU3aDExeiIvPiYjeGE7CTxwYXRoIGNsYXNzPSJzdDEiIGQ9Ik0wIDB2NDEuNzM0YzQuMTA1IDEuODE5IDcuNzQgMy4zNSAxMSA0LjU3MlYwem02Ni4yNjQgMHYzOS4xNTRjMy4xNzgtLjQxMiA2LjI4Mi0uNDczIDkuNDM0LS4xNS41MjMuMDUzIDEuMDQ0LjExOSAxLjU2Ni4xOTFWMHpNNDQuMTc2IDExLjUzOHYzNC42OTRsMi4xMzctLjg5NWMzLjE0LTEuMzc5IDYuMDY5LTIuNTM5IDguODYzLTMuNDl2LTMwLjMxek0yMi4wODggMjIuMjg1djI3LjIzYy4wMTEuMDAyLjAyMi4wMDQuMDMzLjAwNiAzLjc3NC42NCA3LjIxNS43MDcgMTAuOTY3LjA4VjIyLjI4NXptNjYuMjY0IDB2MTkuNjQxYzMuMzg4IDEuMTQ0IDcuMDE1IDIuNTk3IDExIDQuMjlWMjIuMjg1eiIvPiYjeGE7PC9zdmc+;" parent="1" vertex="1">
          <mxGeometry x="2690" y="-678.5" width="25" height="25" as="geometry" />
        </mxCell>
        <mxCell id="1W3SnPmFIVeSbYBCv_X_-43" value="Kolokwium 1" style="text;html=1;align=center;verticalAlign=middle;whiteSpace=wrap;rounded=0;fontSize=19;" parent="1" vertex="1">
          <mxGeometry x="2762.5" y="-681.25" width="145" height="30" as="geometry" />
        </mxCell>
        <mxCell id="1W3SnPmFIVeSbYBCv_X_-44" value="" style="line;strokeWidth=2;direction=south;html=1;" parent="1" vertex="1">
          <mxGeometry x="2730" y="-689.5" width="10" height="47.5" as="geometry" />
        </mxCell>
        <mxCell id="1W3SnPmFIVeSbYBCv_X_-45" value="" style="line;strokeWidth=2;direction=south;html=1;" parent="1" vertex="1">
          <mxGeometry x="2930" y="-689.75" width="10" height="47.5" as="geometry" />
        </mxCell>
        <mxCell id="1W3SnPmFIVeSbYBCv_X_-46" value="10.5 pkt" style="text;html=1;align=center;verticalAlign=middle;whiteSpace=wrap;rounded=0;fontSize=17;" parent="1" vertex="1">
          <mxGeometry x="2955" y="-681.25" width="120" height="30" as="geometry" />
        </mxCell>
        <mxCell id="1W3SnPmFIVeSbYBCv_X_-47" value="" style="line;strokeWidth=2;direction=south;html=1;" parent="1" vertex="1">
          <mxGeometry x="3090" y="-690" width="10" height="47.5" as="geometry" />
        </mxCell>
        <mxCell id="1W3SnPmFIVeSbYBCv_X_-48" value="Wystawiący: Vadym Melnychenko" style="text;html=1;align=center;verticalAlign=middle;whiteSpace=wrap;rounded=0;fontSize=17;" parent="1" vertex="1">
          <mxGeometry x="3110" y="-680.75" width="310" height="30" as="geometry" />
        </mxCell>
        <mxCell id="1W3SnPmFIVeSbYBCv_X_-49" value="" style="rounded=0;whiteSpace=wrap;html=1;" parent="1" vertex="1">
          <mxGeometry x="2680" y="-608.5" width="751.25" height="45" as="geometry" />
        </mxCell>
        <mxCell id="1W3SnPmFIVeSbYBCv_X_-50" value="" style="editableCssRules=.*;html=1;shape=image;verticalLabelPosition=bottom;labelBackgroundColor=#ffffff;verticalAlign=top;aspect=fixed;imageAspect=0;image=data:image/svg+xml,PHN2ZyB4bWxucz0iaHR0cDovL3d3dy53My5vcmcvMjAwMC9zdmciIHhtbG5zOnY9Imh0dHBzOi8vdmVjdGEuaW8vbmFubyIgd2lkdGg9IjM3NS41MDQwMTg5MTYxMTE2IiBoZWlnaHQ9IjM3Ni40MTEwMTA4NDIxNTg5MyIgdmlld0JveD0iMCAwIDk5LjM1MjAwNTAwNDg4MjgxIDk5LjU5MjAwMjg2ODY1MjM0Ij4mI3hhOzxzdHlsZSB0eXBlPSJ0ZXh0L2NzcyI+JiN4YTsJLnN0MHtmaWxsOiM2NjlkZjY7fSYjeGE7CS5zdDF7ZmlsbDojYWVjYmZhO30mI3hhOzwvc3R5bGU+JiN4YTsJPHBhdGggY2xhc3M9InN0MCIgZD0iTTcwLjc2MyA0OS43ODZhMzAuOTkgMzAuOTkgMCAwIDAtNC40OTkuNDQydjI3LjA3OGgxMXYtMjYuOTdsLTIuNjg2LS4zOTFjLTEuMjc5LS4xMzEtMi41NC0uMTg2LTMuODE1LS4xNTl6bS0xNS41ODcgMy43NjZsLTQuNDcxIDEuODcxLS4wMTYuMDA2LS4wMTYuMDA4LTYuNDk4IDIuNTIydjMwLjg4NGgxMXptMzMuMTc2LjEwNHY0NS45MzZoMTFWNTguMTk4Yy00LjEzOC0xLjc5OC03Ljc4My0zLjMyNS0xMS00LjU0MXpNMCA1My43Njh2MjMuNTM5aDExVjU4LjAxMmMtMy40MzYtMS4xMjYtNy4wNTItMi41NTItMTEtNC4yNDR6bTMzLjA4OCA2Ljg2Yy0zLjcwNS40NzItNy4zMjUuNDc4LTExIC4wMDd2MzguOTU3aDExeiIvPiYjeGE7CTxwYXRoIGNsYXNzPSJzdDEiIGQ9Ik0wIDB2NDEuNzM0YzQuMTA1IDEuODE5IDcuNzQgMy4zNSAxMSA0LjU3MlYwem02Ni4yNjQgMHYzOS4xNTRjMy4xNzgtLjQxMiA2LjI4Mi0uNDczIDkuNDM0LS4xNS41MjMuMDUzIDEuMDQ0LjExOSAxLjU2Ni4xOTFWMHpNNDQuMTc2IDExLjUzOHYzNC42OTRsMi4xMzctLjg5NWMzLjE0LTEuMzc5IDYuMDY5LTIuNTM5IDguODYzLTMuNDl2LTMwLjMxek0yMi4wODggMjIuMjg1djI3LjIzYy4wMTEuMDAyLjAyMi4wMDQuMDMzLjAwNiAzLjc3NC42NCA3LjIxNS43MDcgMTAuOTY3LjA4VjIyLjI4NXptNjYuMjY0IDB2MTkuNjQxYzMuMzg4IDEuMTQ0IDcuMDE1IDIuNTk3IDExIDQuMjlWMjIuMjg1eiIvPiYjeGE7PC9zdmc+;" parent="1" vertex="1">
          <mxGeometry x="2690" y="-598.5" width="25" height="25" as="geometry" />
        </mxCell>
        <mxCell id="1W3SnPmFIVeSbYBCv_X_-51" value="Kolokwium 1" style="text;html=1;align=center;verticalAlign=middle;whiteSpace=wrap;rounded=0;fontSize=19;" parent="1" vertex="1">
          <mxGeometry x="2762.5" y="-601.25" width="145" height="30" as="geometry" />
        </mxCell>
        <mxCell id="1W3SnPmFIVeSbYBCv_X_-52" value="" style="line;strokeWidth=2;direction=south;html=1;" parent="1" vertex="1">
          <mxGeometry x="2730" y="-609.5" width="10" height="47.5" as="geometry" />
        </mxCell>
        <mxCell id="1W3SnPmFIVeSbYBCv_X_-53" value="" style="line;strokeWidth=2;direction=south;html=1;" parent="1" vertex="1">
          <mxGeometry x="2930" y="-609.75" width="10" height="47.5" as="geometry" />
        </mxCell>
        <mxCell id="1W3SnPmFIVeSbYBCv_X_-54" value="10.5 pkt" style="text;html=1;align=center;verticalAlign=middle;whiteSpace=wrap;rounded=0;fontSize=17;" parent="1" vertex="1">
          <mxGeometry x="2955" y="-601.25" width="120" height="30" as="geometry" />
        </mxCell>
        <mxCell id="1W3SnPmFIVeSbYBCv_X_-55" value="" style="line;strokeWidth=2;direction=south;html=1;" parent="1" vertex="1">
          <mxGeometry x="3090" y="-610" width="10" height="47.5" as="geometry" />
        </mxCell>
        <mxCell id="1W3SnPmFIVeSbYBCv_X_-56" value="Wystawiący: Vadym Melnychenko" style="text;html=1;align=center;verticalAlign=middle;whiteSpace=wrap;rounded=0;fontSize=17;" parent="1" vertex="1">
          <mxGeometry x="3110" y="-600.75" width="310" height="30" as="geometry" />
        </mxCell>
        <mxCell id="1W3SnPmFIVeSbYBCv_X_-57" value="И дальше как в примере выше" style="text;html=1;align=center;verticalAlign=middle;whiteSpace=wrap;rounded=0;fontSize=24;" parent="1" vertex="1">
          <mxGeometry x="2900" y="-410" width="275" height="71" as="geometry" />
        </mxCell>
        <mxCell id="1W3SnPmFIVeSbYBCv_X_-128" value="" style="rounded=1;whiteSpace=wrap;html=1;fontSize=18;" parent="1" vertex="1">
          <mxGeometry x="2380" y="-885" width="160" height="60" as="geometry" />
        </mxCell>
        <mxCell id="1W3SnPmFIVeSbYBCv_X_-129" value="&lt;font style=&quot;font-size: 10px;&quot;&gt;Semester&lt;/font&gt;" style="text;html=1;align=center;verticalAlign=middle;whiteSpace=wrap;rounded=0;fontSize=18;" parent="1" vertex="1">
          <mxGeometry x="2455.45" y="-864" width="52.55" height="15" as="geometry" />
        </mxCell>
        <mxCell id="1W3SnPmFIVeSbYBCv_X_-130" value="" style="group" parent="1" vertex="1" connectable="0">
          <mxGeometry x="2510" y="-862.5" width="25.34" height="17.5" as="geometry" />
        </mxCell>
        <mxCell id="1W3SnPmFIVeSbYBCv_X_-131" value="" style="rounded=1;whiteSpace=wrap;html=1;" parent="1W3SnPmFIVeSbYBCv_X_-130" vertex="1">
          <mxGeometry width="25.34" height="17.5" as="geometry" />
        </mxCell>
        <mxCell id="1W3SnPmFIVeSbYBCv_X_-132" value="" style="triangle;whiteSpace=wrap;html=1;rotation=90;fillColor=#000000;" parent="1W3SnPmFIVeSbYBCv_X_-130" vertex="1">
          <mxGeometry x="13.514666666666667" y="3.5" width="6.757333333333333" height="10.5" as="geometry" />
        </mxCell>
        <mxCell id="1W3SnPmFIVeSbYBCv_X_-133" value="1" style="text;html=1;align=center;verticalAlign=middle;whiteSpace=wrap;rounded=0;" parent="1W3SnPmFIVeSbYBCv_X_-130" vertex="1">
          <mxGeometry width="8.108799999999999" height="17.5" as="geometry" />
        </mxCell>
        <mxCell id="1W3SnPmFIVeSbYBCv_X_-134" value="&lt;font style=&quot;font-size: 10px;&quot;&gt;Rok&lt;/font&gt;" style="text;html=1;align=center;verticalAlign=middle;whiteSpace=wrap;rounded=0;fontSize=12;" parent="1" vertex="1">
          <mxGeometry x="2382" y="-864" width="20" height="20" as="geometry" />
        </mxCell>
        <mxCell id="1W3SnPmFIVeSbYBCv_X_-135" value="" style="group" parent="1" vertex="1" connectable="0">
          <mxGeometry x="2408" y="-862.5" width="27.16" height="17.5" as="geometry" />
        </mxCell>
        <mxCell id="1W3SnPmFIVeSbYBCv_X_-136" value="" style="rounded=1;whiteSpace=wrap;html=1;" parent="1W3SnPmFIVeSbYBCv_X_-135" vertex="1">
          <mxGeometry width="27.16" height="17.5" as="geometry" />
        </mxCell>
        <mxCell id="1W3SnPmFIVeSbYBCv_X_-137" value="" style="triangle;whiteSpace=wrap;html=1;rotation=90;fillColor=#000000;" parent="1W3SnPmFIVeSbYBCv_X_-135" vertex="1">
          <mxGeometry x="14.485333333333335" y="3.5" width="7.2426666666666675" height="10.5" as="geometry" />
        </mxCell>
        <mxCell id="1W3SnPmFIVeSbYBCv_X_-138" value="1" style="text;html=1;align=center;verticalAlign=middle;whiteSpace=wrap;rounded=0;" parent="1W3SnPmFIVeSbYBCv_X_-135" vertex="1">
          <mxGeometry width="8.6912" height="17.5" as="geometry" />
        </mxCell>
        <mxCell id="1W3SnPmFIVeSbYBCv_X_-141" value="" style="rounded=0;whiteSpace=wrap;html=1;fillColor=default;fillStyle=auto;" parent="1" vertex="1">
          <mxGeometry x="3830" y="-970" width="1580" height="940" as="geometry" />
        </mxCell>
        <mxCell id="1W3SnPmFIVeSbYBCv_X_-142" value="" style="group" parent="1" vertex="1" connectable="0">
          <mxGeometry x="3850" y="-952.5" width="210" height="900" as="geometry" />
        </mxCell>
        <mxCell id="1W3SnPmFIVeSbYBCv_X_-143" value="" style="rounded=1;whiteSpace=wrap;html=1;fillColor=#BFBFBF;fontColor=#333333;strokeColor=#666666;movable=1;resizable=1;rotatable=1;deletable=1;editable=1;locked=0;connectable=1;" parent="1W3SnPmFIVeSbYBCv_X_-142" vertex="1">
          <mxGeometry width="210" height="900" as="geometry" />
        </mxCell>
        <mxCell id="1W3SnPmFIVeSbYBCv_X_-144" value="&lt;font style=&quot;font-size: 32px;&quot;&gt;Learny&lt;/font&gt;" style="rounded=1;whiteSpace=wrap;html=1;fillColor=#0A0A0A;fontColor=#FCFCFC;fontSize=16;movable=1;resizable=1;rotatable=1;deletable=1;editable=1;locked=0;connectable=1;" parent="1W3SnPmFIVeSbYBCv_X_-142" vertex="1">
          <mxGeometry x="10" y="50" width="190" height="60" as="geometry" />
        </mxCell>
        <mxCell id="1W3SnPmFIVeSbYBCv_X_-145" value="Main Page" style="rounded=1;whiteSpace=wrap;html=1;fontSize=16;" parent="1W3SnPmFIVeSbYBCv_X_-142" vertex="1">
          <mxGeometry x="10" y="200" width="190" height="40" as="geometry" />
        </mxCell>
        <mxCell id="1W3SnPmFIVeSbYBCv_X_-146" value="Schedule" style="rounded=1;whiteSpace=wrap;html=1;fontSize=16;" parent="1W3SnPmFIVeSbYBCv_X_-142" vertex="1">
          <mxGeometry x="10" y="260" width="190" height="40" as="geometry" />
        </mxCell>
        <mxCell id="1W3SnPmFIVeSbYBCv_X_-147" value="Courses" style="rounded=1;whiteSpace=wrap;html=1;fontSize=16;" parent="1W3SnPmFIVeSbYBCv_X_-142" vertex="1">
          <mxGeometry x="10" y="320" width="190" height="40" as="geometry" />
        </mxCell>
        <mxCell id="1W3SnPmFIVeSbYBCv_X_-148" value="Sprawdziany" style="rounded=1;whiteSpace=wrap;html=1;fontSize=16;fillColor=#d5e8d4;strokeColor=#82b366;" parent="1W3SnPmFIVeSbYBCv_X_-142" vertex="1">
          <mxGeometry x="10" y="380" width="190" height="40" as="geometry" />
        </mxCell>
        <mxCell id="1W3SnPmFIVeSbYBCv_X_-149" value="Oceny końcowe" style="rounded=1;whiteSpace=wrap;html=1;fontSize=16;" parent="1W3SnPmFIVeSbYBCv_X_-142" vertex="1">
          <mxGeometry x="10" y="440" width="190" height="40" as="geometry" />
        </mxCell>
        <mxCell id="1W3SnPmFIVeSbYBCv_X_-150" value="Zaliczenie etapów" style="rounded=1;whiteSpace=wrap;html=1;fontSize=16;" parent="1W3SnPmFIVeSbYBCv_X_-142" vertex="1">
          <mxGeometry x="10" y="500" width="190" height="40" as="geometry" />
        </mxCell>
        <mxCell id="1W3SnPmFIVeSbYBCv_X_-151" value="Decyzje" style="rounded=1;whiteSpace=wrap;html=1;fontSize=16;" parent="1W3SnPmFIVeSbYBCv_X_-142" vertex="1">
          <mxGeometry x="10" y="560" width="190" height="40" as="geometry" />
        </mxCell>
        <mxCell id="1W3SnPmFIVeSbYBCv_X_-152" value="Profil" style="rounded=1;whiteSpace=wrap;html=1;fontSize=16;" parent="1W3SnPmFIVeSbYBCv_X_-142" vertex="1">
          <mxGeometry x="10" y="130" width="190" height="40" as="geometry" />
        </mxCell>
        <mxCell id="1W3SnPmFIVeSbYBCv_X_-153" value="" style="line;strokeWidth=2;html=1;" parent="1W3SnPmFIVeSbYBCv_X_-142" vertex="1">
          <mxGeometry x="10" y="180" width="190" height="10" as="geometry" />
        </mxCell>
        <mxCell id="1W3SnPmFIVeSbYBCv_X_-154" value="" style="line;strokeWidth=2;html=1;" parent="1W3SnPmFIVeSbYBCv_X_-142" vertex="1">
          <mxGeometry x="10" y="610" width="190" height="10" as="geometry" />
        </mxCell>
        <mxCell id="1W3SnPmFIVeSbYBCv_X_-155" value="Aplikacja mobilna" style="rounded=1;whiteSpace=wrap;html=1;fontSize=16;" parent="1W3SnPmFIVeSbYBCv_X_-142" vertex="1">
          <mxGeometry x="10" y="630" width="190" height="40" as="geometry" />
        </mxCell>
        <mxCell id="1W3SnPmFIVeSbYBCv_X_-156" value="Preferencje" style="rounded=1;whiteSpace=wrap;html=1;fontSize=16;" parent="1W3SnPmFIVeSbYBCv_X_-142" vertex="1">
          <mxGeometry x="10" y="812.5" width="190" height="40" as="geometry" />
        </mxCell>
        <mxCell id="1W3SnPmFIVeSbYBCv_X_-157" value="Język" style="rounded=1;whiteSpace=wrap;html=1;fontSize=16;" parent="1W3SnPmFIVeSbYBCv_X_-142" vertex="1">
          <mxGeometry x="10" y="690" width="190" height="40" as="geometry" />
        </mxCell>
        <mxCell id="1W3SnPmFIVeSbYBCv_X_-158" value="Platności" style="rounded=1;whiteSpace=wrap;html=1;fontSize=16;" parent="1W3SnPmFIVeSbYBCv_X_-142" vertex="1">
          <mxGeometry x="10" y="752.5" width="190" height="40" as="geometry" />
        </mxCell>
        <mxCell id="1W3SnPmFIVeSbYBCv_X_-160" value="" style="rounded=1;whiteSpace=wrap;html=1;" parent="1" vertex="1">
          <mxGeometry x="4130" y="-885" width="260" height="770" as="geometry" />
        </mxCell>
        <mxCell id="1W3SnPmFIVeSbYBCv_X_-161" value="" style="group" parent="1" vertex="1" connectable="0">
          <mxGeometry x="4170" y="-776" width="180" height="50" as="geometry" />
        </mxCell>
        <mxCell id="1W3SnPmFIVeSbYBCv_X_-162" value="" style="rounded=1;whiteSpace=wrap;html=1;" parent="1W3SnPmFIVeSbYBCv_X_-161" vertex="1">
          <mxGeometry x="-10" width="190" height="50" as="geometry" />
        </mxCell>
        <mxCell id="1W3SnPmFIVeSbYBCv_X_-163" value="&lt;font style=&quot;font-size: 16px;&quot;&gt;Analiza matematyczna&lt;/font&gt;" style="text;html=1;align=center;verticalAlign=middle;whiteSpace=wrap;rounded=0;" parent="1W3SnPmFIVeSbYBCv_X_-161" vertex="1">
          <mxGeometry x="5" y="10" width="160" height="30" as="geometry" />
        </mxCell>
        <mxCell id="1W3SnPmFIVeSbYBCv_X_-164" value="" style="group" parent="1" vertex="1" connectable="0">
          <mxGeometry x="4170" y="-700" width="170" height="50" as="geometry" />
        </mxCell>
        <mxCell id="1W3SnPmFIVeSbYBCv_X_-165" value="" style="rounded=1;whiteSpace=wrap;html=1;" parent="1W3SnPmFIVeSbYBCv_X_-164" vertex="1">
          <mxGeometry width="170" height="50" as="geometry" />
        </mxCell>
        <mxCell id="1W3SnPmFIVeSbYBCv_X_-166" value="&lt;font style=&quot;font-size: 16px;&quot;&gt;Nazwa przedmiotu&lt;/font&gt;" style="text;html=1;align=center;verticalAlign=middle;whiteSpace=wrap;rounded=0;" parent="1W3SnPmFIVeSbYBCv_X_-164" vertex="1">
          <mxGeometry x="15" y="10" width="140" height="30" as="geometry" />
        </mxCell>
        <mxCell id="1W3SnPmFIVeSbYBCv_X_-200" value="" style="rounded=1;whiteSpace=wrap;html=1;fontSize=18;" parent="1" vertex="1">
          <mxGeometry x="4180" y="-885" width="160" height="60" as="geometry" />
        </mxCell>
        <mxCell id="1W3SnPmFIVeSbYBCv_X_-201" value="&lt;font style=&quot;font-size: 10px;&quot;&gt;Semester&lt;/font&gt;" style="text;html=1;align=center;verticalAlign=middle;whiteSpace=wrap;rounded=0;fontSize=18;" parent="1" vertex="1">
          <mxGeometry x="4255.45" y="-864" width="52.55" height="15" as="geometry" />
        </mxCell>
        <mxCell id="1W3SnPmFIVeSbYBCv_X_-202" value="" style="group" parent="1" vertex="1" connectable="0">
          <mxGeometry x="4310" y="-862.5" width="25.34" height="17.5" as="geometry" />
        </mxCell>
        <mxCell id="1W3SnPmFIVeSbYBCv_X_-203" value="" style="rounded=1;whiteSpace=wrap;html=1;" parent="1W3SnPmFIVeSbYBCv_X_-202" vertex="1">
          <mxGeometry width="25.34" height="17.5" as="geometry" />
        </mxCell>
        <mxCell id="1W3SnPmFIVeSbYBCv_X_-204" value="" style="triangle;whiteSpace=wrap;html=1;rotation=90;fillColor=#000000;" parent="1W3SnPmFIVeSbYBCv_X_-202" vertex="1">
          <mxGeometry x="13.514666666666667" y="3.5" width="6.757333333333333" height="10.5" as="geometry" />
        </mxCell>
        <mxCell id="1W3SnPmFIVeSbYBCv_X_-205" value="1" style="text;html=1;align=center;verticalAlign=middle;whiteSpace=wrap;rounded=0;" parent="1W3SnPmFIVeSbYBCv_X_-202" vertex="1">
          <mxGeometry width="8.108799999999999" height="17.5" as="geometry" />
        </mxCell>
        <mxCell id="1W3SnPmFIVeSbYBCv_X_-206" value="&lt;font style=&quot;font-size: 10px;&quot;&gt;Rok&lt;/font&gt;" style="text;html=1;align=center;verticalAlign=middle;whiteSpace=wrap;rounded=0;fontSize=12;" parent="1" vertex="1">
          <mxGeometry x="4182" y="-864" width="20" height="20" as="geometry" />
        </mxCell>
        <mxCell id="1W3SnPmFIVeSbYBCv_X_-207" value="" style="group" parent="1" vertex="1" connectable="0">
          <mxGeometry x="4208" y="-862.5" width="27.16" height="17.5" as="geometry" />
        </mxCell>
        <mxCell id="1W3SnPmFIVeSbYBCv_X_-208" value="" style="rounded=1;whiteSpace=wrap;html=1;" parent="1W3SnPmFIVeSbYBCv_X_-207" vertex="1">
          <mxGeometry width="27.16" height="17.5" as="geometry" />
        </mxCell>
        <mxCell id="1W3SnPmFIVeSbYBCv_X_-209" value="" style="triangle;whiteSpace=wrap;html=1;rotation=90;fillColor=#000000;" parent="1W3SnPmFIVeSbYBCv_X_-207" vertex="1">
          <mxGeometry x="14.485333333333335" y="3.5" width="7.2426666666666675" height="10.5" as="geometry" />
        </mxCell>
        <mxCell id="1W3SnPmFIVeSbYBCv_X_-210" value="1" style="text;html=1;align=center;verticalAlign=middle;whiteSpace=wrap;rounded=0;" parent="1W3SnPmFIVeSbYBCv_X_-207" vertex="1">
          <mxGeometry width="8.6912" height="17.5" as="geometry" />
        </mxCell>
        <mxCell id="1W3SnPmFIVeSbYBCv_X_-211" value="" style="group" parent="1" vertex="1" connectable="0">
          <mxGeometry x="4500" y="-877.75" width="751.25" height="48" as="geometry" />
        </mxCell>
        <mxCell id="1W3SnPmFIVeSbYBCv_X_-251" value="" style="group" parent="1W3SnPmFIVeSbYBCv_X_-211" vertex="1" connectable="0">
          <mxGeometry width="751.25" height="48" as="geometry" />
        </mxCell>
        <mxCell id="1W3SnPmFIVeSbYBCv_X_-175" value="" style="rounded=0;whiteSpace=wrap;html=1;" parent="1W3SnPmFIVeSbYBCv_X_-251" vertex="1">
          <mxGeometry y="1.5" width="751.25" height="45" as="geometry" />
        </mxCell>
        <mxCell id="1W3SnPmFIVeSbYBCv_X_-176" value="" style="editableCssRules=.*;html=1;shape=image;verticalLabelPosition=bottom;labelBackgroundColor=#ffffff;verticalAlign=top;aspect=fixed;imageAspect=0;image=data:image/svg+xml,PHN2ZyB4bWxucz0iaHR0cDovL3d3dy53My5vcmcvMjAwMC9zdmciIHhtbG5zOnY9Imh0dHBzOi8vdmVjdGEuaW8vbmFubyIgd2lkdGg9IjM3NS41MDQwMTg5MTYxMTE2IiBoZWlnaHQ9IjM3Ni40MTEwMTA4NDIxNTg5MyIgdmlld0JveD0iMCAwIDk5LjM1MjAwNTAwNDg4MjgxIDk5LjU5MjAwMjg2ODY1MjM0Ij4mI3hhOzxzdHlsZSB0eXBlPSJ0ZXh0L2NzcyI+JiN4YTsJLnN0MHtmaWxsOiM2NjlkZjY7fSYjeGE7CS5zdDF7ZmlsbDojYWVjYmZhO30mI3hhOzwvc3R5bGU+JiN4YTsJPHBhdGggY2xhc3M9InN0MCIgZD0iTTcwLjc2MyA0OS43ODZhMzAuOTkgMzAuOTkgMCAwIDAtNC40OTkuNDQydjI3LjA3OGgxMXYtMjYuOTdsLTIuNjg2LS4zOTFjLTEuMjc5LS4xMzEtMi41NC0uMTg2LTMuODE1LS4xNTl6bS0xNS41ODcgMy43NjZsLTQuNDcxIDEuODcxLS4wMTYuMDA2LS4wMTYuMDA4LTYuNDk4IDIuNTIydjMwLjg4NGgxMXptMzMuMTc2LjEwNHY0NS45MzZoMTFWNTguMTk4Yy00LjEzOC0xLjc5OC03Ljc4My0zLjMyNS0xMS00LjU0MXpNMCA1My43Njh2MjMuNTM5aDExVjU4LjAxMmMtMy40MzYtMS4xMjYtNy4wNTItMi41NTItMTEtNC4yNDR6bTMzLjA4OCA2Ljg2Yy0zLjcwNS40NzItNy4zMjUuNDc4LTExIC4wMDd2MzguOTU3aDExeiIvPiYjeGE7CTxwYXRoIGNsYXNzPSJzdDEiIGQ9Ik0wIDB2NDEuNzM0YzQuMTA1IDEuODE5IDcuNzQgMy4zNSAxMSA0LjU3MlYwem02Ni4yNjQgMHYzOS4xNTRjMy4xNzgtLjQxMiA2LjI4Mi0uNDczIDkuNDM0LS4xNS41MjMuMDUzIDEuMDQ0LjExOSAxLjU2Ni4xOTFWMHpNNDQuMTc2IDExLjUzOHYzNC42OTRsMi4xMzctLjg5NWMzLjE0LTEuMzc5IDYuMDY5LTIuNTM5IDguODYzLTMuNDl2LTMwLjMxek0yMi4wODggMjIuMjg1djI3LjIzYy4wMTEuMDAyLjAyMi4wMDQuMDMzLjAwNiAzLjc3NC42NCA3LjIxNS43MDcgMTAuOTY3LjA4VjIyLjI4NXptNjYuMjY0IDB2MTkuNjQxYzMuMzg4IDEuMTQ0IDcuMDE1IDIuNTk3IDExIDQuMjlWMjIuMjg1eiIvPiYjeGE7PC9zdmc+;" parent="1W3SnPmFIVeSbYBCv_X_-251" vertex="1">
          <mxGeometry x="15" y="11.75" width="25" height="25" as="geometry" />
        </mxCell>
        <mxCell id="1W3SnPmFIVeSbYBCv_X_-177" value="Kolokwium 1" style="text;html=1;align=center;verticalAlign=middle;whiteSpace=wrap;rounded=0;fontSize=19;" parent="1W3SnPmFIVeSbYBCv_X_-251" vertex="1">
          <mxGeometry x="82.5" y="8.75" width="145" height="30" as="geometry" />
        </mxCell>
        <mxCell id="1W3SnPmFIVeSbYBCv_X_-178" value="" style="line;strokeWidth=2;direction=south;html=1;" parent="1W3SnPmFIVeSbYBCv_X_-251" vertex="1">
          <mxGeometry x="50" y="0.5" width="10" height="47.5" as="geometry" />
        </mxCell>
        <mxCell id="1W3SnPmFIVeSbYBCv_X_-179" value="" style="line;strokeWidth=2;direction=south;html=1;" parent="1W3SnPmFIVeSbYBCv_X_-251" vertex="1">
          <mxGeometry x="250" y="0.25" width="10" height="47.5" as="geometry" />
        </mxCell>
        <mxCell id="1W3SnPmFIVeSbYBCv_X_-180" value="10.5 pkt" style="text;html=1;align=center;verticalAlign=middle;whiteSpace=wrap;rounded=0;fontSize=17;" parent="1W3SnPmFIVeSbYBCv_X_-251" vertex="1">
          <mxGeometry x="275" y="8.75" width="120" height="30" as="geometry" />
        </mxCell>
        <mxCell id="1W3SnPmFIVeSbYBCv_X_-181" value="" style="line;strokeWidth=2;direction=south;html=1;" parent="1W3SnPmFIVeSbYBCv_X_-251" vertex="1">
          <mxGeometry x="410" width="10" height="47.5" as="geometry" />
        </mxCell>
        <mxCell id="1W3SnPmFIVeSbYBCv_X_-182" value="Wystawiący: Vadym Melnychenko" style="text;html=1;align=center;verticalAlign=middle;whiteSpace=wrap;rounded=0;fontSize=17;" parent="1W3SnPmFIVeSbYBCv_X_-251" vertex="1">
          <mxGeometry x="430" y="9.25" width="310" height="30" as="geometry" />
        </mxCell>
        <mxCell id="1W3SnPmFIVeSbYBCv_X_-213" value="" style="rounded=0;whiteSpace=wrap;html=1;" parent="1" vertex="1">
          <mxGeometry x="4499.63" y="-830.5" width="750.37" height="500.5" as="geometry" />
        </mxCell>
        <mxCell id="1W3SnPmFIVeSbYBCv_X_-214" value="" style="rounded=0;whiteSpace=wrap;html=1;" parent="1" vertex="1">
          <mxGeometry x="4580" y="-776" width="630" height="386.5" as="geometry" />
        </mxCell>
        <mxCell id="1W3SnPmFIVeSbYBCv_X_-215" value="" style="rounded=0;whiteSpace=wrap;html=1;rotation=-90;" parent="1" vertex="1">
          <mxGeometry x="4470" y="-551.5" width="301" height="23" as="geometry" />
        </mxCell>
        <mxCell id="1W3SnPmFIVeSbYBCv_X_-216" value="" style="rounded=0;whiteSpace=wrap;html=1;rotation=-90;" parent="1" vertex="1">
          <mxGeometry x="4610" y="-475" width="146.5" height="23" as="geometry" />
        </mxCell>
        <mxCell id="1W3SnPmFIVeSbYBCv_X_-217" value="&lt;font style=&quot;font-size: 21px;&quot;&gt;Count of students&lt;/font&gt;" style="text;html=1;align=center;verticalAlign=middle;whiteSpace=wrap;rounded=0;rotation=-90;" parent="1" vertex="1">
          <mxGeometry x="4428.5" y="-573.5" width="190" height="30" as="geometry" />
        </mxCell>
        <mxCell id="1W3SnPmFIVeSbYBCv_X_-219" value="" style="line;strokeWidth=2;html=1;" parent="1" vertex="1">
          <mxGeometry x="4570" y="-751.25" width="10" height="10" as="geometry" />
        </mxCell>
        <mxCell id="1W3SnPmFIVeSbYBCv_X_-220" value="20" style="text;html=1;align=center;verticalAlign=middle;whiteSpace=wrap;rounded=0;" parent="1" vertex="1">
          <mxGeometry x="4540" y="-761" width="30" height="30" as="geometry" />
        </mxCell>
        <mxCell id="1W3SnPmFIVeSbYBCv_X_-221" value="" style="line;strokeWidth=2;html=1;" parent="1" vertex="1">
          <mxGeometry x="4570" y="-663.5" width="10" height="10" as="geometry" />
        </mxCell>
        <mxCell id="1W3SnPmFIVeSbYBCv_X_-222" value="" style="line;strokeWidth=2;html=1;" parent="1" vertex="1">
          <mxGeometry x="4570" y="-575.5" width="10" height="10" as="geometry" />
        </mxCell>
        <mxCell id="1W3SnPmFIVeSbYBCv_X_-223" value="" style="line;strokeWidth=2;html=1;" parent="1" vertex="1">
          <mxGeometry x="4570" y="-487" width="10" height="10" as="geometry" />
        </mxCell>
        <mxCell id="1W3SnPmFIVeSbYBCv_X_-224" value="15" style="text;html=1;align=center;verticalAlign=middle;whiteSpace=wrap;rounded=0;" parent="1" vertex="1">
          <mxGeometry x="4540" y="-673.5" width="30" height="30" as="geometry" />
        </mxCell>
        <mxCell id="1W3SnPmFIVeSbYBCv_X_-225" value="10" style="text;html=1;align=center;verticalAlign=middle;whiteSpace=wrap;rounded=0;" parent="1" vertex="1">
          <mxGeometry x="4540" y="-585.5" width="30" height="30" as="geometry" />
        </mxCell>
        <mxCell id="1W3SnPmFIVeSbYBCv_X_-226" value="5" style="text;html=1;align=center;verticalAlign=middle;whiteSpace=wrap;rounded=0;" parent="1" vertex="1">
          <mxGeometry x="4540" y="-497" width="30" height="30" as="geometry" />
        </mxCell>
        <mxCell id="1W3SnPmFIVeSbYBCv_X_-227" value="&lt;span style=&quot;font-size: 20px;&quot;&gt;Points&lt;/span&gt;" style="text;html=1;align=center;verticalAlign=middle;whiteSpace=wrap;rounded=0;" parent="1" vertex="1">
          <mxGeometry x="4832.41" y="-365" width="125.18" height="25" as="geometry" />
        </mxCell>
        <mxCell id="1W3SnPmFIVeSbYBCv_X_-228" value="" style="line;strokeWidth=2;html=1;rotation=90;" parent="1" vertex="1">
          <mxGeometry x="4615" y="-389.5" width="10" height="10" as="geometry" />
        </mxCell>
        <mxCell id="1W3SnPmFIVeSbYBCv_X_-229" value="" style="line;strokeWidth=2;html=1;rotation=90;" parent="1" vertex="1">
          <mxGeometry x="4677" y="-389.5" width="10" height="10" as="geometry" />
        </mxCell>
        <mxCell id="1W3SnPmFIVeSbYBCv_X_-230" value="" style="line;strokeWidth=2;html=1;rotation=90;" parent="1" vertex="1">
          <mxGeometry x="4738.5" y="-389.5" width="10" height="10" as="geometry" />
        </mxCell>
        <mxCell id="1W3SnPmFIVeSbYBCv_X_-231" value="" style="line;strokeWidth=2;html=1;rotation=90;" parent="1" vertex="1">
          <mxGeometry x="4800" y="-389.5" width="10" height="10" as="geometry" />
        </mxCell>
        <mxCell id="1W3SnPmFIVeSbYBCv_X_-232" value="" style="line;strokeWidth=2;html=1;rotation=90;" parent="1" vertex="1">
          <mxGeometry x="4861" y="-389.5" width="10" height="10" as="geometry" />
        </mxCell>
        <mxCell id="1W3SnPmFIVeSbYBCv_X_-233" value="" style="line;strokeWidth=2;html=1;rotation=90;" parent="1" vertex="1">
          <mxGeometry x="4923" y="-389.5" width="10" height="10" as="geometry" />
        </mxCell>
        <mxCell id="1W3SnPmFIVeSbYBCv_X_-234" value="" style="line;strokeWidth=2;html=1;rotation=90;" parent="1" vertex="1">
          <mxGeometry x="4985" y="-389.5" width="10" height="10" as="geometry" />
        </mxCell>
        <mxCell id="1W3SnPmFIVeSbYBCv_X_-235" value="" style="line;strokeWidth=2;html=1;rotation=90;" parent="1" vertex="1">
          <mxGeometry x="5047" y="-389.5" width="10" height="10" as="geometry" />
        </mxCell>
        <mxCell id="1W3SnPmFIVeSbYBCv_X_-236" value="" style="line;strokeWidth=2;html=1;rotation=90;" parent="1" vertex="1">
          <mxGeometry x="5109" y="-389.5" width="10" height="10" as="geometry" />
        </mxCell>
        <mxCell id="1W3SnPmFIVeSbYBCv_X_-237" value="" style="line;strokeWidth=2;html=1;rotation=90;" parent="1" vertex="1">
          <mxGeometry x="5171" y="-389.5" width="10" height="10" as="geometry" />
        </mxCell>
        <mxCell id="1W3SnPmFIVeSbYBCv_X_-238" value="" style="rounded=0;whiteSpace=wrap;html=1;rotation=-90;" parent="1" vertex="1">
          <mxGeometry x="4623.62" y="-521.63" width="239.75" height="23" as="geometry" />
        </mxCell>
        <mxCell id="1W3SnPmFIVeSbYBCv_X_-240" value="1" style="text;html=1;align=center;verticalAlign=middle;whiteSpace=wrap;rounded=0;" parent="1" vertex="1">
          <mxGeometry x="4605" y="-380" width="30" height="20" as="geometry" />
        </mxCell>
        <mxCell id="1W3SnPmFIVeSbYBCv_X_-241" value="2" style="text;html=1;align=center;verticalAlign=middle;whiteSpace=wrap;rounded=0;" parent="1" vertex="1">
          <mxGeometry x="4667" y="-380" width="30" height="20" as="geometry" />
        </mxCell>
        <mxCell id="1W3SnPmFIVeSbYBCv_X_-242" value="3" style="text;html=1;align=center;verticalAlign=middle;whiteSpace=wrap;rounded=0;" parent="1" vertex="1">
          <mxGeometry x="4728.5" y="-379.5" width="30" height="20" as="geometry" />
        </mxCell>
        <mxCell id="1W3SnPmFIVeSbYBCv_X_-243" value="4" style="text;html=1;align=center;verticalAlign=middle;whiteSpace=wrap;rounded=0;" parent="1" vertex="1">
          <mxGeometry x="4790" y="-379.5" width="30" height="20" as="geometry" />
        </mxCell>
        <mxCell id="1W3SnPmFIVeSbYBCv_X_-244" value="5" style="text;html=1;align=center;verticalAlign=middle;whiteSpace=wrap;rounded=0;" parent="1" vertex="1">
          <mxGeometry x="4851" y="-379.5" width="30" height="20" as="geometry" />
        </mxCell>
        <mxCell id="1W3SnPmFIVeSbYBCv_X_-245" value="6" style="text;html=1;align=center;verticalAlign=middle;whiteSpace=wrap;rounded=0;" parent="1" vertex="1">
          <mxGeometry x="4913" y="-379.5" width="30" height="20" as="geometry" />
        </mxCell>
        <mxCell id="1W3SnPmFIVeSbYBCv_X_-246" value="7" style="text;html=1;align=center;verticalAlign=middle;whiteSpace=wrap;rounded=0;" parent="1" vertex="1">
          <mxGeometry x="4975" y="-379.5" width="30" height="20" as="geometry" />
        </mxCell>
        <mxCell id="1W3SnPmFIVeSbYBCv_X_-247" value="8" style="text;html=1;align=center;verticalAlign=middle;whiteSpace=wrap;rounded=0;" parent="1" vertex="1">
          <mxGeometry x="5037" y="-379.5" width="30" height="20" as="geometry" />
        </mxCell>
        <mxCell id="1W3SnPmFIVeSbYBCv_X_-248" value="9" style="text;html=1;align=center;verticalAlign=middle;whiteSpace=wrap;rounded=0;" parent="1" vertex="1">
          <mxGeometry x="5099" y="-379.5" width="30" height="20" as="geometry" />
        </mxCell>
        <mxCell id="1W3SnPmFIVeSbYBCv_X_-249" value="10" style="text;html=1;align=center;verticalAlign=middle;whiteSpace=wrap;rounded=0;" parent="1" vertex="1">
          <mxGeometry x="5161" y="-379.5" width="30" height="20" as="geometry" />
        </mxCell>
        <mxCell id="1W3SnPmFIVeSbYBCv_X_-252" value="" style="group" parent="1" vertex="1" connectable="0">
          <mxGeometry x="4498.75" y="-310.5" width="751.25" height="48" as="geometry" />
        </mxCell>
        <mxCell id="1W3SnPmFIVeSbYBCv_X_-253" value="" style="group" parent="1W3SnPmFIVeSbYBCv_X_-252" vertex="1" connectable="0">
          <mxGeometry width="751.25" height="48" as="geometry" />
        </mxCell>
        <mxCell id="1W3SnPmFIVeSbYBCv_X_-254" value="" style="rounded=0;whiteSpace=wrap;html=1;" parent="1W3SnPmFIVeSbYBCv_X_-253" vertex="1">
          <mxGeometry y="1.5" width="751.25" height="45" as="geometry" />
        </mxCell>
        <mxCell id="1W3SnPmFIVeSbYBCv_X_-255" value="" style="editableCssRules=.*;html=1;shape=image;verticalLabelPosition=bottom;labelBackgroundColor=#ffffff;verticalAlign=top;aspect=fixed;imageAspect=0;image=data:image/svg+xml,PHN2ZyB4bWxucz0iaHR0cDovL3d3dy53My5vcmcvMjAwMC9zdmciIHhtbG5zOnY9Imh0dHBzOi8vdmVjdGEuaW8vbmFubyIgd2lkdGg9IjM3NS41MDQwMTg5MTYxMTE2IiBoZWlnaHQ9IjM3Ni40MTEwMTA4NDIxNTg5MyIgdmlld0JveD0iMCAwIDk5LjM1MjAwNTAwNDg4MjgxIDk5LjU5MjAwMjg2ODY1MjM0Ij4mI3hhOzxzdHlsZSB0eXBlPSJ0ZXh0L2NzcyI+JiN4YTsJLnN0MHtmaWxsOiM2NjlkZjY7fSYjeGE7CS5zdDF7ZmlsbDojYWVjYmZhO30mI3hhOzwvc3R5bGU+JiN4YTsJPHBhdGggY2xhc3M9InN0MCIgZD0iTTcwLjc2MyA0OS43ODZhMzAuOTkgMzAuOTkgMCAwIDAtNC40OTkuNDQydjI3LjA3OGgxMXYtMjYuOTdsLTIuNjg2LS4zOTFjLTEuMjc5LS4xMzEtMi41NC0uMTg2LTMuODE1LS4xNTl6bS0xNS41ODcgMy43NjZsLTQuNDcxIDEuODcxLS4wMTYuMDA2LS4wMTYuMDA4LTYuNDk4IDIuNTIydjMwLjg4NGgxMXptMzMuMTc2LjEwNHY0NS45MzZoMTFWNTguMTk4Yy00LjEzOC0xLjc5OC03Ljc4My0zLjMyNS0xMS00LjU0MXpNMCA1My43Njh2MjMuNTM5aDExVjU4LjAxMmMtMy40MzYtMS4xMjYtNy4wNTItMi41NTItMTEtNC4yNDR6bTMzLjA4OCA2Ljg2Yy0zLjcwNS40NzItNy4zMjUuNDc4LTExIC4wMDd2MzguOTU3aDExeiIvPiYjeGE7CTxwYXRoIGNsYXNzPSJzdDEiIGQ9Ik0wIDB2NDEuNzM0YzQuMTA1IDEuODE5IDcuNzQgMy4zNSAxMSA0LjU3MlYwem02Ni4yNjQgMHYzOS4xNTRjMy4xNzgtLjQxMiA2LjI4Mi0uNDczIDkuNDM0LS4xNS41MjMuMDUzIDEuMDQ0LjExOSAxLjU2Ni4xOTFWMHpNNDQuMTc2IDExLjUzOHYzNC42OTRsMi4xMzctLjg5NWMzLjE0LTEuMzc5IDYuMDY5LTIuNTM5IDguODYzLTMuNDl2LTMwLjMxek0yMi4wODggMjIuMjg1djI3LjIzYy4wMTEuMDAyLjAyMi4wMDQuMDMzLjAwNiAzLjc3NC42NCA3LjIxNS43MDcgMTAuOTY3LjA4VjIyLjI4NXptNjYuMjY0IDB2MTkuNjQxYzMuMzg4IDEuMTQ0IDcuMDE1IDIuNTk3IDExIDQuMjlWMjIuMjg1eiIvPiYjeGE7PC9zdmc+;" parent="1W3SnPmFIVeSbYBCv_X_-253" vertex="1">
          <mxGeometry x="15" y="11.75" width="25" height="25" as="geometry" />
        </mxCell>
        <mxCell id="1W3SnPmFIVeSbYBCv_X_-256" value="Kolokwium 2" style="text;html=1;align=center;verticalAlign=middle;whiteSpace=wrap;rounded=0;fontSize=19;" parent="1W3SnPmFIVeSbYBCv_X_-253" vertex="1">
          <mxGeometry x="82.5" y="8.75" width="145" height="30" as="geometry" />
        </mxCell>
        <mxCell id="1W3SnPmFIVeSbYBCv_X_-257" value="" style="line;strokeWidth=2;direction=south;html=1;" parent="1W3SnPmFIVeSbYBCv_X_-253" vertex="1">
          <mxGeometry x="50" y="0.5" width="10" height="47.5" as="geometry" />
        </mxCell>
        <mxCell id="1W3SnPmFIVeSbYBCv_X_-258" value="" style="line;strokeWidth=2;direction=south;html=1;" parent="1W3SnPmFIVeSbYBCv_X_-253" vertex="1">
          <mxGeometry x="250" y="0.25" width="10" height="47.5" as="geometry" />
        </mxCell>
        <mxCell id="1W3SnPmFIVeSbYBCv_X_-259" value="10.5 pkt" style="text;html=1;align=center;verticalAlign=middle;whiteSpace=wrap;rounded=0;fontSize=17;" parent="1W3SnPmFIVeSbYBCv_X_-253" vertex="1">
          <mxGeometry x="275" y="8.75" width="120" height="30" as="geometry" />
        </mxCell>
        <mxCell id="1W3SnPmFIVeSbYBCv_X_-260" value="" style="line;strokeWidth=2;direction=south;html=1;" parent="1W3SnPmFIVeSbYBCv_X_-253" vertex="1">
          <mxGeometry x="410" width="10" height="47.5" as="geometry" />
        </mxCell>
        <mxCell id="1W3SnPmFIVeSbYBCv_X_-261" value="Wystawiący: Vadym Melnychenko" style="text;html=1;align=center;verticalAlign=middle;whiteSpace=wrap;rounded=0;fontSize=17;" parent="1W3SnPmFIVeSbYBCv_X_-253" vertex="1">
          <mxGeometry x="430" y="9.25" width="310" height="30" as="geometry" />
        </mxCell>
        <mxCell id="1W3SnPmFIVeSbYBCv_X_-262" value="" style="group" parent="1" vertex="1" connectable="0">
          <mxGeometry x="4499.63" y="-230" width="751.25" height="48" as="geometry" />
        </mxCell>
        <mxCell id="1W3SnPmFIVeSbYBCv_X_-263" value="" style="group" parent="1W3SnPmFIVeSbYBCv_X_-262" vertex="1" connectable="0">
          <mxGeometry width="751.25" height="48" as="geometry" />
        </mxCell>
        <mxCell id="1W3SnPmFIVeSbYBCv_X_-264" value="" style="rounded=0;whiteSpace=wrap;html=1;" parent="1W3SnPmFIVeSbYBCv_X_-263" vertex="1">
          <mxGeometry y="1.5" width="751.25" height="45" as="geometry" />
        </mxCell>
        <mxCell id="1W3SnPmFIVeSbYBCv_X_-265" value="" style="editableCssRules=.*;html=1;shape=image;verticalLabelPosition=bottom;labelBackgroundColor=#ffffff;verticalAlign=top;aspect=fixed;imageAspect=0;image=data:image/svg+xml,PHN2ZyB4bWxucz0iaHR0cDovL3d3dy53My5vcmcvMjAwMC9zdmciIHhtbG5zOnY9Imh0dHBzOi8vdmVjdGEuaW8vbmFubyIgd2lkdGg9IjM3NS41MDQwMTg5MTYxMTE2IiBoZWlnaHQ9IjM3Ni40MTEwMTA4NDIxNTg5MyIgdmlld0JveD0iMCAwIDk5LjM1MjAwNTAwNDg4MjgxIDk5LjU5MjAwMjg2ODY1MjM0Ij4mI3hhOzxzdHlsZSB0eXBlPSJ0ZXh0L2NzcyI+JiN4YTsJLnN0MHtmaWxsOiM2NjlkZjY7fSYjeGE7CS5zdDF7ZmlsbDojYWVjYmZhO30mI3hhOzwvc3R5bGU+JiN4YTsJPHBhdGggY2xhc3M9InN0MCIgZD0iTTcwLjc2MyA0OS43ODZhMzAuOTkgMzAuOTkgMCAwIDAtNC40OTkuNDQydjI3LjA3OGgxMXYtMjYuOTdsLTIuNjg2LS4zOTFjLTEuMjc5LS4xMzEtMi41NC0uMTg2LTMuODE1LS4xNTl6bS0xNS41ODcgMy43NjZsLTQuNDcxIDEuODcxLS4wMTYuMDA2LS4wMTYuMDA4LTYuNDk4IDIuNTIydjMwLjg4NGgxMXptMzMuMTc2LjEwNHY0NS45MzZoMTFWNTguMTk4Yy00LjEzOC0xLjc5OC03Ljc4My0zLjMyNS0xMS00LjU0MXpNMCA1My43Njh2MjMuNTM5aDExVjU4LjAxMmMtMy40MzYtMS4xMjYtNy4wNTItMi41NTItMTEtNC4yNDR6bTMzLjA4OCA2Ljg2Yy0zLjcwNS40NzItNy4zMjUuNDc4LTExIC4wMDd2MzguOTU3aDExeiIvPiYjeGE7CTxwYXRoIGNsYXNzPSJzdDEiIGQ9Ik0wIDB2NDEuNzM0YzQuMTA1IDEuODE5IDcuNzQgMy4zNSAxMSA0LjU3MlYwem02Ni4yNjQgMHYzOS4xNTRjMy4xNzgtLjQxMiA2LjI4Mi0uNDczIDkuNDM0LS4xNS41MjMuMDUzIDEuMDQ0LjExOSAxLjU2Ni4xOTFWMHpNNDQuMTc2IDExLjUzOHYzNC42OTRsMi4xMzctLjg5NWMzLjE0LTEuMzc5IDYuMDY5LTIuNTM5IDguODYzLTMuNDl2LTMwLjMxek0yMi4wODggMjIuMjg1djI3LjIzYy4wMTEuMDAyLjAyMi4wMDQuMDMzLjAwNiAzLjc3NC42NCA3LjIxNS43MDcgMTAuOTY3LjA4VjIyLjI4NXptNjYuMjY0IDB2MTkuNjQxYzMuMzg4IDEuMTQ0IDcuMDE1IDIuNTk3IDExIDQuMjlWMjIuMjg1eiIvPiYjeGE7PC9zdmc+;" parent="1W3SnPmFIVeSbYBCv_X_-263" vertex="1">
          <mxGeometry x="15" y="11.75" width="25" height="25" as="geometry" />
        </mxCell>
        <mxCell id="1W3SnPmFIVeSbYBCv_X_-266" value="Kolokwium 3" style="text;html=1;align=center;verticalAlign=middle;whiteSpace=wrap;rounded=0;fontSize=19;" parent="1W3SnPmFIVeSbYBCv_X_-263" vertex="1">
          <mxGeometry x="82.5" y="8.75" width="145" height="30" as="geometry" />
        </mxCell>
        <mxCell id="1W3SnPmFIVeSbYBCv_X_-267" value="" style="line;strokeWidth=2;direction=south;html=1;" parent="1W3SnPmFIVeSbYBCv_X_-263" vertex="1">
          <mxGeometry x="50" y="0.5" width="10" height="47.5" as="geometry" />
        </mxCell>
        <mxCell id="1W3SnPmFIVeSbYBCv_X_-268" value="" style="line;strokeWidth=2;direction=south;html=1;" parent="1W3SnPmFIVeSbYBCv_X_-263" vertex="1">
          <mxGeometry x="250" y="0.25" width="10" height="47.5" as="geometry" />
        </mxCell>
        <mxCell id="1W3SnPmFIVeSbYBCv_X_-269" value="10.5 pkt" style="text;html=1;align=center;verticalAlign=middle;whiteSpace=wrap;rounded=0;fontSize=17;" parent="1W3SnPmFIVeSbYBCv_X_-263" vertex="1">
          <mxGeometry x="275" y="8.75" width="120" height="30" as="geometry" />
        </mxCell>
        <mxCell id="1W3SnPmFIVeSbYBCv_X_-270" value="" style="line;strokeWidth=2;direction=south;html=1;" parent="1W3SnPmFIVeSbYBCv_X_-263" vertex="1">
          <mxGeometry x="410" width="10" height="47.5" as="geometry" />
        </mxCell>
        <mxCell id="1W3SnPmFIVeSbYBCv_X_-271" value="Wystawiący: Vadym Melnychenko" style="text;html=1;align=center;verticalAlign=middle;whiteSpace=wrap;rounded=0;fontSize=17;" parent="1W3SnPmFIVeSbYBCv_X_-263" vertex="1">
          <mxGeometry x="430" y="9.25" width="310" height="30" as="geometry" />
        </mxCell>
      </root>
    </mxGraphModel>
  </diagram>
  <diagram id="EdC8gWcz0mBxcQYqR4SS" name="Page-2">
    <mxGraphModel dx="1562" dy="845" grid="1" gridSize="10" guides="1" tooltips="1" connect="1" arrows="1" fold="1" page="1" pageScale="1" pageWidth="2000" pageHeight="700" math="0" shadow="0">
      <root>
        <mxCell id="0" />
        <mxCell id="1" parent="0" />
      </root>
    </mxGraphModel>
  </diagram>
</mxfile>
